# xmcd
#
# Track frame offsets: 
#        150
#        22796
#        31078
#        41694
#        56106
#        75770
#        92000
#        104106
#        119897
#        132233
#        154168
#        173672
#        187799
#        206816
#        228354
#        234915
#        259351
#
# Disc length: 3770 seconds
#
# Revision: 0
# Processed by: cddbd v1.5.2PL0 Copyright (c) Steve Scherf et al.
# Submitted via: ExactAudioCopy v0.99pb5
#
DISCID=da0eb811
DTITLE=Janis Joplin  - Blow My Blues Away CD 7
DYEAR=1900
DGENRE=
TTITLE0=So Sad To Be Alone
TTITLE1=San Francisco Blues
TTITLE2=Apple Of My Eye
TTITLE3=219 Train
TTITLE4=Codine
TTITLE5=Down And Out
TTITLE6=Turtle Blues
TTITLE7=I Ain't Got A Worry
TTITLE8=Brownsville
TTITLE9=Catch Me Daddy
TTITLE10=Piece Of My Heart
TTITLE11=Down On Me
TTITLE12=Summertime
TTITLE13=I Need A Man To Love
TTITLE14=Chat (with Don Adams)
TTITLE15=Combination Of The Two
TTITLE16=Farewell Song
EXTD=
EXTT0=
EXTT1=
EXTT2=
EXTT3=
EXTT4=
EXTT5=
EXTT6=
EXTT7=
EXTT8=
EXTT9=
EXTT10=
EXTT11=
EXTT12=
EXTT13=
EXTT14=
EXTT15=
EXTT16=
PLAYORDER=
